<svg xmlns="http://www.w3.org/2000/svg" viewBox="0 0 1200 825"><defs><linearGradient id="bg" x1="0" x2="1" y1="0" y2="1"><stop offset="0" stop-color="#fffaf0"/><stop offset="1" stop-color="#f1d7cf"/></linearGradient><filter id="shadow" x="-20%" y="-20%" width="140%" height="140%"><feDropShadow dx="0" dy="24" stdDeviation="28" flood-color="#28231f" flood-opacity=".14"/></filter></defs><rect width="1200" height="825" fill="url(#bg)"/><circle cx="1028" cy="128" r="116" fill="#c69a45" opacity=".18"/><circle cx="160" cy="650" r="148" fill="#496b57" opacity=".12"/><g transform="translate(130 154)" filter="url(#shadow)"><rect y="218" width="940" height="310" rx="30" fill="#fff"/><path d="M0 490h940v38H0z" fill="#ead8c3"/></g><g transform="translate(206 132)"><path d="M165 446c-14-104 15-201 88-291" fill="none" stroke="#496b57" stroke-width="13" stroke-linecap="round"/><path d="M280 438c-30-112-4-218 76-318" fill="none" stroke="#496b57" stroke-width="13" stroke-linecap="round"/><path d="M388 442c2-104 42-194 120-270" fill="none" stroke="#496b57" stroke-width="13" stroke-linecap="round"/><g fill="#a83c32"><circle cx="252" cy="146" r="62"/><circle cx="178" cy="214" r="52"/><circle cx="356" cy="114" r="58"/><circle cx="485" cy="180" r="56"/></g><g fill="#d9a653"><circle cx="252" cy="146" r="28"/><circle cx="178" cy="214" r="22"/><circle cx="356" cy="114" r="25"/><circle cx="485" cy="180" r="24"/></g><g fill="#f5eee3"><circle cx="316" cy="224" r="54"/><circle cx="426" cy="270" r="50"/></g><path d="M124 426h422l-36 120H160z" fill="#7d2a24"/><path d="M152 426h366l-28 78H180z" fill="#a83c32"/></g><g transform="translate(690 296)" filter="url(#shadow)"><ellipse cx="170" cy="300" rx="178" ry="34" fill="#d8c8b4"/><rect x="48" y="122" width="244" height="168" rx="30" fill="#fff8ec"/><ellipse cx="170" cy="124" rx="122" ry="44" fill="#fff"/><path d="M68 162c54 38 149 38 204 0v58c-54 39-150 39-204 0z" fill="#f1d7cf"/><rect x="128" y="38" width="84" height="74" rx="10" fill="#c59a45"/><path d="M145 38c8-34 42-34 50 0" fill="none" stroke="#a83c32" stroke-width="12" stroke-linecap="round"/><rect x="104" y="218" width="132" height="28" rx="14" fill="#a83c32"/></g></svg>